<?xml version="1.0" encoding="utf-8"?>
<!-- Generator: Adobe Illustrator 28.1.0, SVG Export Plug-In . SVG Version: 6.00 Build 0)  -->
<svg version="1.1" id="Layer_1" xmlns="http://www.w3.org/2000/svg" xmlns:xlink="http://www.w3.org/1999/xlink" x="0px" y="0px"
	 viewBox="0 0 130 34" style="enable-background:new 0 0 130 34;" xml:space="preserve">
<style type="text/css">
	.st0{fill:#FFFFFF;}
</style>
<path class="st0" d="M50.6,24.5l-3.8-6.6l-1.3-2.8h-0.1v9.4h-2.9v-14h3.3l3.8,6.6l1.3,2.8h0.1v-9.4h2.9v14H50.6z M62.7,24.7
	c-3.8,0-6.2-2.4-6.2-7.1s2.4-7.3,6.2-7.3c2.6,0,4.2,1,5.2,3.3l-2.6,1.4c-0.4-1.2-1.1-1.9-2.6-1.9c-1.8,0-3,1.2-3,3.4v2.2
	c0,2.2,1.2,3.4,3,3.4c1.5,0,2.4-0.9,2.8-2.1l2.5,1.4C66.9,23.5,65.2,24.7,62.7,24.7z M70,24.5v-14h5.3c3.7,0,6.1,2.3,6.1,7
	s-2.4,7-6.1,7H70z M73.1,21.8h2.2c1.8,0,2.9-1,2.9-3.2v-2.2c0-2.2-1.1-3.2-2.9-3.2h-2.2V21.8z M98.2,24.5h-9.5v-14h9.5v2.7h-6.5v2.8
	h5.5v2.7h-5.5v3h6.5V24.5z M111.3,24.5v-9.2h-0.1l-1,2l-2.7,4.9l-2.7-4.9l-1.1-2.2h-0.1v9.3h-2.9v-14h3.2l3.4,6.5h0l3.4-6.5h3.2v14
	H111.3z M120.3,19.4v5.1h-3v-14h6.6c2.6,0,4.2,1.8,4.2,4.5c0,1.9-0.8,3.4-2.5,4l2.7,5.5h-3.4l-2.4-5.1H120.3z M120.3,16.8h3.2
	c0.9,0,1.5-0.5,1.5-1.4v-0.9c0-0.9-0.6-1.4-1.5-1.4h-3.2V16.8z"/>
<g id="_x38_E4xCW.tif">
	
		<image style="overflow:visible;" width="250" height="273" id="Layer_0_00000080888561494779947470000014255011046348244923_" xlink:href="5E29B7EE72161282.png"  transform="matrix(0.1245 0 0 0.1245 0.1236 0)">
	</image>
</g>
</svg>
